Coordinates
version=1
nRows=14
nColumns=24
inDegrees=yes

Units are S.I. units (second, meters, Newtons, ...)
Angles are in degrees.

endheader
time	pelvis_tilt	pelvis_list	pelvis_rotation	pelvis_tx	pelvis_ty	pelvis_tz	hip_flexion_r	hip_adduction_r	hip_rotation_r	knee_angle_r	ankle_angle_r	subtalar_angle_r	mtp_angle_r	hip_flexion_l	hip_adduction_l	hip_rotation_l	knee_angle_l	ankle_angle_l	subtalar_angle_l	mtp_angle_l	lumbar_extension	lumbar_bending	lumbar_rotation
      4.71500000	    -10.91279914	      7.51958319	      1.84846967	     -0.13691924	     -0.01953134	      0.59441124	     25.10477481	    -12.70147851	     -2.78575679	    -65.40356834	     -3.58964814	     -2.00306316	     13.57407264	     18.70190775	     12.71905023	     -1.43462741	    -15.29925806	      1.28085938	      6.97385303	      3.14302861	      9.19355906	    -10.15100482	     -0.53365364
      4.72000000	    -10.88720345	      7.20939183	      2.18315505	     -0.13047831	     -0.01848523	      0.59371131	     25.80388183	    -12.44982423	     -3.14897540	    -65.02736255	     -3.35266787	     -1.59549811	     13.74311607	     17.86321625	     12.58655913	     -0.62939047	    -14.74141358	      1.42680674	      6.67243275	      2.75920274	      9.14432530	     -9.90695947	     -1.05345903
      4.72500000	    -10.85419869	      6.91220119	      2.52174183	     -0.12403077	     -0.01751168	      0.59302701	     26.47627130	    -12.21416834	     -3.52431580	    -64.58065978	     -3.16478979	     -1.30731087	     13.86357085	     17.01825093	     12.45232602	      0.17559036	    -14.18359556	      1.56883374	      6.36251821	      2.34417194	      9.08912423	     -9.67867192	     -1.55770097
      4.73000000	    -10.81931021	      6.62025707	      2.86734136	     -0.11758341	     -0.01661825	      0.59232688	     27.12701430	    -11.98898168	     -3.90679391	    -64.06565071	     -3.01835011	     -1.11631871	     13.93450061	     16.17873451	     12.30945342	      0.95820347	    -13.63423304	      1.71597975	      6.07130111	      1.92623009	      9.03493695	     -9.45629979	     -2.05121675
      4.73500000	    -10.78575030	      6.33790985	      3.22269905	     -0.11120803	     -0.01583034	      0.59167103	     27.77309775	    -11.77277803	     -4.28530460	    -63.50184407	     -2.92424195	     -1.01949648	     13.94779340	     15.36396106	     12.15532668	      1.71156046	    -13.11274538	      1.88081784	      5.84198938	      1.57849933	      8.96559438	     -9.25260227	     -2.59073116
      4.74000000	    -10.74528553	      6.06171975	      3.57631513	     -0.10481146	     -0.01510009	      0.59101449	     28.38753654	    -11.56860897	     -4.67456592	    -62.86466280	     -2.86250281	     -1.02371777	     13.90530546	     14.54310673	     11.99237453	      2.44889917	    -12.58839124	      2.03012026	      5.60346381	      1.22895810	      8.89391663	     -9.05375623	     -3.11390544
      4.74500000	    -10.73028555	      5.76802518	      3.90203661	     -0.09839013	     -0.01445638	      0.59037983	     29.01091174	    -11.33858169	     -5.04837673	    -62.14978001	     -2.82903346	     -1.07948036	     13.81442274	     13.76910606	     11.78568029	      3.05613424	    -12.08069819	      2.17926471	      5.43650463	      0.96222375	      8.86618001	     -8.82520834	     -3.57484825
      4.75000000	    -10.62745273	      5.57417567	      4.28527777	     -0.09203481	     -0.01386523	      0.58972297	     29.52266907	    -11.25399774	     -5.47266693	    -61.41548103	     -2.77862210	     -1.25949809	     13.64593127	     12.86918215	     11.68666017	      3.91139864	    -11.53771159	      2.31970572	      5.12595862	      0.50143159	      8.70893742	     -8.72366108	     -4.10601456
      4.75500000	    -10.62924816	      5.29172285	      4.60914012	     -0.08565663	     -0.01340410	      0.58910639	     30.13136547	    -11.04708672	     -5.85060469	    -60.58136999	     -2.79787587	     -1.46519786	     13.44436942	     12.14017887	     11.46008498	      4.44481300	    -11.05656761	      2.48652821	      5.04196588	      0.28013377	      8.69441285	     -8.50665617	     -4.56179129
      4.76000000	    -10.56338335	      5.06349494	      4.97465565	     -0.07932822	     -0.01298159	      0.58847382	     30.64122357	    -10.92883999	     -6.27874942	    -59.70567275	     -2.80215672	     -1.76797295	     13.15634705	     11.32376618	     11.28342458	      5.11062516	    -10.55472752	      2.64006238	      4.90153676	      0.01286121	      8.58167392	     -8.35907099	     -5.07399495
      4.76500000	    -10.51606490	      4.84044517	      5.30081237	     -0.07301147	     -0.01267820	      0.58789049	     31.16276553	    -10.80329581	     -6.67403210	    -58.77386086	     -2.80306834	     -2.08360357	     12.82535291	     10.54207238	     11.08975984	      5.70442650	    -10.06273464	      2.81604886	      4.79613061	     -0.20918542	      8.49473271	     -8.20677790	     -5.51462187
      4.77000000	    -10.37383583	      4.69727805	      5.64727009	     -0.06670017	     -0.01236737	      0.58728280	     31.55013907	    -10.77578581	     -7.06648572	    -57.80038451	     -2.74551783	     -2.33566839	     12.28985009	      9.63420260	     10.97156648	      6.42583765	     -9.54915429	      2.95607106	      4.54086485	     -0.61050368	      8.29008796	     -8.14324953	     -6.01097936
      4.77500000	    -10.37337464	      4.48012589	      5.94663906	     -0.06037781	     -0.01224612	      0.58671408	     32.07749744	    -10.65771882	     -7.44822801	    -56.73439485	     -2.79440876	     -2.73323921	     11.84360332	      8.93982427	     10.75918924	      6.85967608	     -9.10243298	      3.13956703	      4.53771297	     -0.76470198	      8.26758002	     -7.98669273	     -6.40746550
      4.78000000	    -10.23805027	      4.32806617	      6.26760193	     -0.05412482	     -0.01211515	      0.58618071	     32.43208105	    -10.61972500	     -7.86006181	    -55.64216782	     -2.73829029	     -3.04537333	     11.16569659	      8.07444314	     10.59393006	      7.46151336	     -8.61857056	      3.31808115	      4.41779409	     -1.01474472	      8.05993104	     -7.90850149	     -6.86162547
